<?xml version="1.0" encoding="UTF-8"?><svg id="Calque_2" xmlns="http://www.w3.org/2000/svg" viewBox="0 0 194.29 194.29"><defs><style>.cls-1{fill:none;stroke:#fff;stroke-miterlimit:10;stroke-width:.4px;}</style></defs><g id="Calque_2-2"><path class="cls-1" d="m194.09,97.15c0,21.61-40.67,27.95-54.83,42.11-14.16,14.16-20.5,54.83-42.11,54.83s-27.95-40.67-42.11-54.83C40.87,125.1.2,118.75.2,97.15s40.67-27.95,54.83-42.11C69.2,40.87,75.54.2,97.15.2s27.95,40.67,42.11,54.83c14.16,14.16,54.83,20.5,54.83,42.11Z"/><path class="cls-1" d="m193.56,107.28c-2.26,21.49-43.37,23.55-58.93,36.15-15.56,12.6-26.12,52.39-47.61,50.13s-23.55-43.37-36.15-58.93S-1.53,108.5.73,87.01c2.26-21.49,43.37-23.55,58.93-36.15C75.23,38.26,85.79-1.53,107.28.73s23.55,43.37,36.15,58.93c12.6,15.56,52.39,26.12,50.13,47.61Z"/><path class="cls-1" d="m191.97,117.3c-4.49,21.14-45.6,18.88-62.39,29.79-16.79,10.91-31.46,49.37-52.59,44.88s-18.88-45.6-29.79-62.39C36.29,112.79-2.17,98.13,2.32,76.99s45.6-18.88,62.39-29.79S96.17-2.17,117.3,2.32s18.88,45.6,29.79,62.39c10.91,16.79,49.37,31.46,44.88,52.59Z"/><path class="cls-1" d="m189.34,127.1c-6.68,20.55-47.32,14.01-65.16,23.11-17.84,9.09-36.44,45.81-56.99,39.14-20.55-6.68-14.01-47.32-23.11-65.16C34.99,106.34-1.73,87.74,4.95,67.19s47.32-14.01,65.16-23.11C87.95,34.99,106.55-1.73,127.1,4.95c20.55,6.68,14.01,47.32,23.11,65.16,9.09,17.84,45.81,36.44,39.14,56.99Z"/><path class="cls-1" d="m185.71,136.58c-8.79,19.74-48.53,8.99-67.22,16.17-18.7,7.18-41.03,41.75-60.77,32.96-19.74-8.79-8.99-48.53-16.17-67.22C34.37,99.79-.21,77.45,8.58,57.71c8.79-19.74,48.53-8.99,67.22-16.17C94.5,34.37,116.84-.21,136.58,8.58c19.74,8.79,8.99,48.53,16.17,67.22s41.75,41.03,32.96,60.77Z"/><path class="cls-1" d="m181.1,145.62c-10.8,18.71-49.2,3.87-68.54,9.05-19.34,5.18-45.17,37.24-63.89,26.43-18.71-10.8-3.87-49.2-9.05-68.54-5.18-19.34-37.24-45.17-26.43-63.89s49.2-3.87,68.54-9.05c19.34-5.18,45.17-37.24,63.89-26.43s3.87,49.2,9.05,68.54,37.24,45.17,26.43,63.89Z"/><path class="cls-1" d="m175.57,154.13c-12.7,17.48-49.33-1.29-69.11,1.84-19.78,3.13-48.82,32.31-66.3,19.61-17.48-12.7,1.29-49.33-1.84-69.11S6.02,57.64,18.72,40.16c12.7-17.48,49.33,1.29,69.11-1.84s48.82-32.31,66.3-19.61c17.48,12.7-1.29,49.33,1.84,69.11,3.13,19.78,32.31,48.82,19.61,66.3Z"/><path class="cls-1" d="m169.19,162.01c-14.46,16.06-48.93-6.44-68.93-5.4-20,1.05-51.93,27.03-67.98,12.57-16.06-14.46,6.44-48.93,5.4-68.93-1.05-20-27.03-51.93-12.57-67.98,14.46-16.06,48.93,6.44,68.93,5.4s51.93-27.03,67.98-12.57c16.06,14.46-6.44,48.93-5.4,68.93,1.05,20,27.03,51.93,12.57,67.98Z"/><path class="cls-1" d="m162.01,169.19c-16.06,14.46-47.99-11.52-67.98-12.57s-54.47,21.45-68.93,5.4c-14.46-16.06,11.52-47.99,12.57-67.98,1.05-20-21.45-54.47-5.4-68.93,16.06-14.46,47.99,11.52,67.98,12.57s54.47-21.45,68.93-5.4c14.46,16.06-11.52,47.99-12.57,67.98-1.05,20,21.45,54.47,5.4,68.93Z"/><path class="cls-1" d="m154.13,175.57c-17.48,12.7-46.52-16.48-66.3-19.61-19.78-3.13-56.41,15.64-69.11-1.84-12.7-17.48,16.48-46.52,19.61-66.3s-15.64-56.41,1.84-69.11c17.48-12.7,46.52,16.48,66.3,19.61,19.78,3.13,56.41-15.64,69.11,1.84,12.7,17.48-16.48,46.52-19.61,66.3s15.64,56.41-1.84,69.11Z"/><path class="cls-1" d="m145.62,181.1c-18.71,10.8-44.54-21.25-63.89-26.43-19.34-5.18-57.74,9.66-68.54-9.05-10.8-18.71,21.25-44.54,26.43-63.89,5.18-19.34-9.66-57.74,9.05-68.54,18.71-10.8,44.54,21.25,63.89,26.43,19.34,5.18,57.74-9.66,68.54,9.05,10.8,18.71-21.25,44.54-26.43,63.89-5.18,19.34,9.66,57.74-9.05,68.54Z"/><path class="cls-1" d="m136.58,185.71c-19.74,8.79-42.08-25.79-60.77-32.96-18.7-7.18-58.43,3.57-67.22-16.17C-.21,116.84,34.37,94.5,41.55,75.8c7.18-18.7-3.57-58.43,16.17-67.22C77.45-.21,99.79,34.37,118.49,41.55c18.7,7.18,58.43-3.57,67.22,16.17,8.79,19.74-25.79,42.08-32.96,60.77-7.18,18.7,3.57,58.43-16.17,67.22Z"/><path class="cls-1" d="m127.1,189.34c-20.55,6.68-39.15-30.05-56.99-39.14-17.84-9.09-58.49-2.55-65.16-23.11-6.68-20.55,30.05-39.15,39.14-56.99s2.55-58.49,23.11-65.16c20.55-6.68,39.15,30.05,56.99,39.14s58.49,2.55,65.16,23.11c6.68,20.55-30.05,39.15-39.14,56.99-9.09,17.84-2.55,58.49-23.11,65.16Z"/><path class="cls-1" d="m117.3,191.97c-21.14,4.49-35.8-33.97-52.59-44.88-16.79-10.91-57.9-8.65-62.39-29.79-4.49-21.14,33.97-35.8,44.88-52.59,10.91-16.79,8.65-57.9,29.79-62.39,21.14-4.49,35.8,33.97,52.59,44.88,16.79,10.91,57.9,8.65,62.39,29.79,4.49,21.14-33.97,35.8-44.88,52.59-10.91,16.79-8.65,57.9-29.79,62.39Z"/><path class="cls-1" d="m107.28,193.56c-21.49,2.26-32.05-37.53-47.61-50.13-15.56-12.6-56.68-14.66-58.93-36.15-2.26-21.49,37.53-32.05,50.13-47.61C63.47,44.1,65.52,2.99,87.01.73s32.05,37.53,47.61,50.13c15.56,12.6,56.68,14.66,58.93,36.15,2.26,21.49-37.53,32.05-50.13,47.61-12.6,15.56-14.66,56.68-36.15,58.93Z"/><path class="cls-1" d="m97.15,194.09c-21.61,0-27.95-40.67-42.11-54.83C40.87,125.1.2,118.75.2,97.15c0-21.61,40.67-27.95,54.83-42.11C69.2,40.87,75.54.2,97.15.2s27.95,40.67,42.11,54.83,54.83,20.5,54.83,42.11-40.67,27.95-54.83,42.11c-14.16,14.16-20.5,54.83-42.11,54.83Z"/><path class="cls-1" d="m87.01,193.56c-21.49-2.26-23.55-43.37-36.15-58.93C38.26,119.06-1.53,108.5.73,87.01c2.26-21.49,43.37-23.55,58.93-36.15C75.23,38.26,85.79-1.53,107.28.73c21.49,2.26,23.55,43.37,36.15,58.93,12.6,15.56,52.39,26.12,50.13,47.61-2.26,21.49-43.37,23.55-58.93,36.15-15.56,12.6-26.12,52.39-47.61,50.13Z"/><path class="cls-1" d="m76.99,191.97c-21.14-4.49-18.88-45.6-29.79-62.39C36.29,112.79-2.17,98.13,2.32,76.99c4.49-21.14,45.6-18.88,62.39-29.79C81.51,36.29,96.17-2.17,117.3,2.32c21.14,4.49,18.88,45.6,29.79,62.39s49.37,31.46,44.88,52.59-45.6,18.88-62.39,29.79c-16.79,10.91-31.46,49.37-52.59,44.88Z"/></g></svg>